HIERARCHY
ROOT Hips
{
	OFFSET 0.00000 0.00000 0.00000
	CHANNELS 6 Xposition Yposition Zposition Zrotation Yrotation Xrotation 
	JOINT LHipJoint
	{
		OFFSET 0 0 0
		CHANNELS 3 Zrotation Yrotation Xrotation
		JOINT LeftHip
		{
			OFFSET 1.40001 -1.72600 0.84541
			CHANNELS 3 Zrotation Yrotation Xrotation
			JOINT LeftKnee
			{
				OFFSET 2.34760 -6.44999 0.00000
				CHANNELS 3 Zrotation Yrotation Xrotation
				JOINT LeftAnkle
				{
					OFFSET 2.50650 -6.88655 0.00000
					CHANNELS 3 Zrotation Yrotation Xrotation
					JOINT LeftToe
					{
						OFFSET 0.12464 -0.34243 1.95563
						CHANNELS 3 Zrotation Yrotation Xrotation
						End Site
						{
							OFFSET 0.00000 -0.00000 1.00479
						}
					}
				}
			}
		}
	}
	JOINT RHipJoint
	{
		OFFSET 0 0 0
		CHANNELS 3 Zrotation Yrotation Xrotation
		JOINT RightHip
		{
			OFFSET -1.40958 -1.72600 0.84541
			CHANNELS 3 Zrotation Yrotation Xrotation
			JOINT RightKnee
			{
				OFFSET -2.37905 -6.53640 0.00000
				CHANNELS 3 Zrotation Yrotation Xrotation
				JOINT RightAnkle
				{
					OFFSET -2.50470 -6.88163 0.00000
					CHANNELS 3 Zrotation Yrotation Xrotation
					JOINT RightToe
					{
						OFFSET -0.12236 -0.33619 1.81785
						CHANNELS 3 Zrotation Yrotation Xrotation
						End Site
						{
							OFFSET -0.00000 -0.00000 0.93746
						}
					}
				}
			}
		}
	}
	JOINT lowerback
	{
		OFFSET 0 0 0
		CHANNELS 3 Zrotation Yrotation Xrotation
		JOINT Chest
		{
			OFFSET -0.02146 1.96915 0.26424
			CHANNELS 3 Zrotation Yrotation Xrotation
			JOINT Chest2
			{
				OFFSET 0.01522 1.99484 0.02086
				CHANNELS 3 Zrotation Yrotation Xrotation
				JOINT lowerneck
				{
					OFFSET 0 0 0
					CHANNELS 3 Zrotation Yrotation Xrotation
					JOINT Neck
					{
						OFFSET -0.02954 1.71757 0.03505
						CHANNELS 3 Zrotation Yrotation Xrotation
						JOINT Head
						{
							OFFSET 0.04170 1.65781 -0.11024
							CHANNELS 3 Zrotation Yrotation Xrotation
							End Site
							{
								OFFSET 0.01600 1.81465 -0.05144
							}
						}
					}
				}
				JOINT LeftCollar
				{
					OFFSET 0 0 0
					CHANNELS 3 Zrotation Yrotation Xrotation
					JOINT LeftShoulder
					{
						OFFSET 2.77679 1.60868 -0.78649
CHANNELS 3 Zrotation Xrotation Yrotation
						JOINT LeftElbow
						{
OFFSET 0 -4.626720 -0.000000
CHANNELS 3 Zrotation Xrotation Yrotation
							JOINT LeftWrist
							{
OFFSET 0 -3.110180 -0.000000
CHANNELS 3 Zrotation Xrotation Yrotation
								JOINT lhand
								{
									OFFSET 0 0 0
CHANNELS 3 Zrotation Xrotation Yrotation
									JOINT LFingers
									{
OFFSET 0 -0.743830 -0.000000
CHANNELS 3 Zrotation Xrotation Yrotation
										End Site
										{
OFFSET 0 -0.599700 -0.000000
										}
									}
								}
								JOINT LThumb
								{
OFFSET 0 0.000000 0.000000
CHANNELS 3 Zrotation Xrotation Yrotation
									End Site
									{
OFFSET 0 -0.608850 0.608850
									}
								}
							}
						}
					}
				}
				JOINT RightCollar
				{
					OFFSET 0 0 0
					CHANNELS 3 Zrotation Yrotation Xrotation
					JOINT RightShoulder
					{
						OFFSET -2.73247 1.63658 -0.74740
CHANNELS 3 Zrotation Xrotation Yrotation
						JOINT RightElbow
						{
OFFSET 0 -4.559190 -0.000000
CHANNELS 3 Zrotation Xrotation Yrotation
							JOINT RightWrist
							{
OFFSET 0 -3.227480 -0.000000
CHANNELS 3 Zrotation Xrotation Yrotation
								JOINT rhand
								{
									OFFSET 0 0 0
CHANNELS 3 Zrotation Xrotation Yrotation
									JOINT RFingers
									{
OFFSET 0 -0.700880 -0.000000
CHANNELS 3 Zrotation Xrotation Yrotation
										End Site
										{
OFFSET 0 -0.565070 -0.000000
										}
									}
								}
								JOINT RThumb
								{
OFFSET 0 0.000000 0.000000
CHANNELS 3 Zrotation Xrotation Yrotation
									End Site
									{
OFFSET 0 -0.573700 0.573700
									}
								}
							}
						}
					}
				}
			}
		}
	}
}
MOTION
Frames: 7
Frame Time: 0.008333333333333333
-0.934600 16.571800 -46.193200 0.044400 -0.834200 18.411100 0.000000 0.000000 0.000000 -17.677500 -7.103300 -41.056600 14.018300 19.119600 72.260400 0.092600 0.065400 -5.771000 0.194400 -2.839700 -7.832800 0.000000 0.000000 0.000000 21.628700 9.551100 -31.329200 -3.240700 -11.074900 32.533000 -1.041100 12.010700 -18.865200 -0.436000 4.237400 -11.745400 1.316400 0.000900 -16.172200 2.177400 -0.331400 -4.435600 1.485900 -0.157200 4.345500 2.108200 -0.590000 -3.698700 -4.899900 -0.540800 7.965300 -2.001400 -0.386800 3.206500 -0.000000 0.000000 0.000000 0.226400 6.260100 -21.883800 13.683300 -22.280100 2.706900 17.970200 4.863400 22.189900 0.000000 0.000000 0.000000 -7.125000 0.000000 0.000000 -6.837800 6.907200 -6.009900 -0.000000 0.000000 0.000000 0.011900 1.683600 11.564400 -15.050100 -24.215800 -3.246400 -19.935100 9.571000 34.246500 0.000000 0.000000 0.000000 7.125000 0.000000 -0.000000 16.720400 65.155500 -8.254000
-0.940388 16.571274 -46.072698 0.144709 -1.273915 18.243436 0.000000 0.000000 0.000000 -17.812473 -6.895381 -41.794544 13.802488 19.052377 71.599874 0.107071 0.182153 -6.242221 0.205385 -2.917579 -8.049401 0.000000 0.000000 0.000000 21.582065 9.502623 -30.614475 -3.233728 -11.064113 32.496494 -1.090432 12.108772 -19.270119 -0.466520 4.379871 -12.148017 1.075790 0.000571 -15.380714 2.218971 -0.268386 -4.792371 1.672902 -0.126548 3.545003 1.716239 -0.504754 -3.388828 -4.791501 -0.397276 8.254321 -1.890041 -0.322865 3.250175 0.000000 0.000000 0.000000 -0.076500 7.216948 -21.083697 13.392635 -21.859000 2.598172 17.998747 5.306403 21.348358 0.000000 0.000000 0.000000 -7.125000 0.000000 0.000000 -6.765183 7.766962 -5.830988 0.000000 0.000000 0.000000 -0.308891 1.967162 13.393113 -15.665963 -25.061946 -3.505361 -20.414478 8.698346 34.343454 0.000000 0.000000 0.000000 7.125000 0.000000 0.000000 16.247797 65.382691 -8.098965
-0.943400 16.573082 -45.941689 0.358355 -1.202919 18.022985 0.000000 0.000000 0.000000 -17.964547 -7.107459 -42.252396 13.556638 18.972911 70.844817 0.121384 0.304207 -6.693596 0.207030 -2.929261 -8.081862 0.000000 0.000000 0.000000 21.533662 8.996444 -29.921963 -3.229343 -11.057333 32.473493 -1.152953 12.199714 -19.766509 -0.461765 4.356503 -12.082172 0.849032 -0.086149 -15.311151 2.119974 -0.342216 -4.638936 1.682421 -0.164523 3.672751 1.731149 -0.495770 -3.492358 -4.755451 -0.390627 8.244066 -1.881606 -0.318912 3.266558 0.000000 0.000000 0.000000 -0.102715 7.287988 -20.453568 12.991314 -21.272123 2.451738 17.980344 5.833179 20.612107 0.000000 0.000000 0.000000 -7.125000 0.000000 0.000000 -6.731218 8.525472 -5.699217 0.000000 0.000000 0.000000 -0.380322 1.464275 14.910369 -16.252010 -25.858271 -3.756813 -20.760325 7.858317 35.031010 0.000000 0.000000 0.000000 7.125000 0.000000 0.000000 16.547728 66.131131 -8.554568
-0.943400 16.577424 -45.799283 0.694932 -0.577978 17.745277 0.000000 0.000000 0.000000 -18.135171 -7.775088 -42.406444 13.278207 18.880166 69.987226 0.135526 0.432010 -7.123444 0.198545 -2.869141 -7.914593 0.000000 0.000000 0.000000 21.483343 7.993816 -29.253544 -3.227764 -11.054899 32.465139 -1.229780 12.282921 -20.362113 -0.418747 4.153254 -11.508208 0.637298 -0.266573 -16.024626 1.868512 -0.564474 -3.932104 1.499431 -0.276935 4.807326 2.187373 -0.569506 -4.044287 -4.797877 -0.532441 7.909199 -1.984809 -0.380019 3.253337 0.000000 0.000000 0.000000 0.171177 6.398232 -20.007802 12.469971 -20.505435 2.264407 17.911015 6.450818 19.990061 0.000000 0.000000 0.000000 -7.125000 0.000000 0.000000 -6.739177 9.174157 -5.618575 0.000000 0.000000 0.000000 -0.181283 0.108362 16.089804 -16.805715 -26.600556 -4.000120 -20.961337 7.053676 36.359165 0.000000 0.000000 0.000000 7.125000 0.000000 0.000000 17.685592 67.444947 -9.672502
-0.941128 16.571605 -45.670824 0.556580 -0.864150 17.960043 0.000000 0.000000 0.000000 -17.983769 -7.793681 -43.413548 13.019843 18.788242 69.186114 0.153580 0.560003 -7.619931 0.204637 -2.912325 -8.034705 0.000000 0.000000 0.000000 21.649854 7.714689 -29.088263 -3.224734 -11.050256 32.449402 -1.233468 12.986641 -20.542612 -0.332502 3.688623 -10.204244 0.869699 -0.117778 -16.675375 1.774307 -0.418640 -3.770059 1.299782 -0.202492 5.324796 2.151125 -0.586636 -3.766067 -4.686579 -0.568427 7.610933 -1.933467 -0.389694 3.096047 0.000000 0.000000 0.000000 0.211139 6.124888 -19.355998 11.976332 -19.766891 2.095882 17.676541 6.932340 19.917850 0.000000 0.000000 0.000000 -7.125000 0.000000 0.000000 -6.886220 9.278309 -5.728384 0.000000 0.000000 0.000000 -0.262620 -0.459051 17.508849 -17.482348 -27.484513 -4.310128 -21.436226 6.259510 36.549723 0.000000 0.000000 0.000000 7.125000 0.000000 0.000000 17.315495 67.767507 -9.588282
-0.941388 16.563681 -45.542377 0.454674 -1.033419 18.126973 0.000000 0.000000 0.000000 -17.817783 -7.884327 -44.339530 12.744827 18.686793 68.329832 0.162240 0.820107 -7.958052 0.192660 -2.820239 -7.779016 0.000000 0.000000 0.000000 21.813152 7.437593 -28.848767 -3.221469 -11.045232 32.432458 -1.247923 13.461372 -20.750132 -0.264760 3.304715 -9.128851 1.013661 -0.063526 -16.797162 1.750760 -0.368823 -3.925058 1.203169 -0.176748 5.223786 1.954360 -0.544704 -3.367797 -4.535386 -0.508524 7.598323 -1.840291 -0.356094 3.016530 0.000000 0.000000 0.000000 0.133240 6.438802 -18.648973 11.572790 -19.160170 1.960297 17.393660 7.406396 19.827554 0.000000 0.000000 0.000000 -7.125000 0.000000 0.000000 -7.063930 9.406603 -5.859945 0.000000 0.000000 0.000000 -0.455784 -0.513743 18.848042 -18.179983 -28.382380 -4.636852 -21.289077 5.424198 36.356006 0.000000 0.000000 0.000000 7.125000 0.000000 0.000000 17.279325 67.542856 -9.476485
-0.945006 16.553617 -45.413192 0.425009 -1.004083 18.206168 0.000000 0.000000 0.000000 -17.650580 -8.102112 -45.115756 12.447452 18.573131 67.400018 0.158688 1.248969 -8.090262 0.156812 -2.549767 -7.027719 0.000000 0.000000 0.000000 21.960623 7.123972 -28.487261 -3.217983 -11.039838 32.414369 -1.280088 13.610027 -21.014619 -0.222992 3.038057 -8.384921 1.020634 -0.147851 -16.246615 1.808972 -0.461567 -4.455610 1.239083 -0.223318 4.366063 1.579172 -0.430385 -2.861057 -4.341544 -0.331849 7.948647 -1.702029 -0.269993 3.044156 0.000000 0.000000 0.000000 -0.082572 7.469582 -17.882548 11.282849 -18.720324 1.865777 17.057872 7.878275 19.684425 0.000000 0.000000 0.000000 -7.125000 0.000000 0.000000 -7.273296 9.595184 -6.008994 0.000000 0.000000 0.000000 -0.776641 0.043909 20.072270 -18.897800 -29.290356 -4.981323 -20.332492 4.535758 35.732907 0.000000 0.000000 0.000000 7.125000 0.000000 0.000000 17.751269 66.672767 -9.394462
